<?xml version="1.0" standalone="no"?>
<svg xmlns:xlink="http://www.w3.org/1999/xlink" id="wave" style="transform:rotate(0deg); transition: 0.3s" viewBox="0 0 1440 490" version="1.1" xmlns="http://www.w3.org/2000/svg"><defs><linearGradient id="sw-gradient-0" x1="0" x2="0" y1="1" y2="0"><stop stop-color="rgba(255, 180.618, 156.729, 1)" offset="0%"/><stop stop-color="rgba(156.729, 162.778, 255, 1)" offset="100%"/></linearGradient></defs><path style="transform:translate(0, 0px); opacity:1" fill="url(#sw-gradient-0)" d="M0,0L48,40.8C96,82,192,163,288,212.3C384,261,480,278,576,245C672,212,768,131,864,155.2C960,180,1056,310,1152,310.3C1248,310,1344,180,1440,130.7C1536,82,1632,114,1728,138.8C1824,163,1920,180,2016,155.2C2112,131,2208,65,2304,32.7C2400,0,2496,0,2592,0C2688,0,2784,0,2880,32.7C2976,65,3072,131,3168,130.7C3264,131,3360,65,3456,49C3552,33,3648,65,3744,73.5C3840,82,3936,65,4032,106.2C4128,147,4224,245,4320,236.8C4416,229,4512,114,4608,122.5C4704,131,4800,261,4896,310.3C4992,359,5088,327,5184,326.7C5280,327,5376,359,5472,334.8C5568,310,5664,229,5760,163.3C5856,98,5952,49,6048,40.8C6144,33,6240,65,6336,106.2C6432,147,6528,196,6624,253.2C6720,310,6816,376,6864,408.3L6912,441L6912,490L6864,490C6816,490,6720,490,6624,490C6528,490,6432,490,6336,490C6240,490,6144,490,6048,490C5952,490,5856,490,5760,490C5664,490,5568,490,5472,490C5376,490,5280,490,5184,490C5088,490,4992,490,4896,490C4800,490,4704,490,4608,490C4512,490,4416,490,4320,490C4224,490,4128,490,4032,490C3936,490,3840,490,3744,490C3648,490,3552,490,3456,490C3360,490,3264,490,3168,490C3072,490,2976,490,2880,490C2784,490,2688,490,2592,490C2496,490,2400,490,2304,490C2208,490,2112,490,2016,490C1920,490,1824,490,1728,490C1632,490,1536,490,1440,490C1344,490,1248,490,1152,490C1056,490,960,490,864,490C768,490,672,490,576,490C480,490,384,490,288,490C192,490,96,490,48,490L0,490Z"/><defs><linearGradient id="sw-gradient-1" x1="0" x2="0" y1="1" y2="0"><stop stop-color="rgba(255, 159.911, 129.372, 1)" offset="0%"/><stop stop-color="rgba(87.201, 86.178, 250.816, 1)" offset="100%"/></linearGradient></defs><path style="transform:translate(0, 50px); opacity:0.9" fill="url(#sw-gradient-1)" d="M0,245L48,228.7C96,212,192,180,288,187.8C384,196,480,245,576,277.7C672,310,768,327,864,285.8C960,245,1056,147,1152,163.3C1248,180,1344,310,1440,334.8C1536,359,1632,278,1728,269.5C1824,261,1920,327,2016,326.7C2112,327,2208,261,2304,196C2400,131,2496,65,2592,81.7C2688,98,2784,196,2880,245C2976,294,3072,294,3168,310.3C3264,327,3360,359,3456,383.8C3552,408,3648,425,3744,359.3C3840,294,3936,147,4032,130.7C4128,114,4224,229,4320,228.7C4416,229,4512,114,4608,89.8C4704,65,4800,131,4896,130.7C4992,131,5088,65,5184,57.2C5280,49,5376,98,5472,155.2C5568,212,5664,278,5760,253.2C5856,229,5952,114,6048,81.7C6144,49,6240,98,6336,98C6432,98,6528,49,6624,89.8C6720,131,6816,261,6864,326.7L6912,392L6912,490L6864,490C6816,490,6720,490,6624,490C6528,490,6432,490,6336,490C6240,490,6144,490,6048,490C5952,490,5856,490,5760,490C5664,490,5568,490,5472,490C5376,490,5280,490,5184,490C5088,490,4992,490,4896,490C4800,490,4704,490,4608,490C4512,490,4416,490,4320,490C4224,490,4128,490,4032,490C3936,490,3840,490,3744,490C3648,490,3552,490,3456,490C3360,490,3264,490,3168,490C3072,490,2976,490,2880,490C2784,490,2688,490,2592,490C2496,490,2400,490,2304,490C2208,490,2112,490,2016,490C1920,490,1824,490,1728,490C1632,490,1536,490,1440,490C1344,490,1248,490,1152,490C1056,490,960,490,864,490C768,490,672,490,576,490C480,490,384,490,288,490C192,490,96,490,48,490L0,490Z"/></svg>